# xmcd
#
# Track frame offsets: 
#        150
#        13827
#        31805
#        54410
#        79863
#        101937
#        116515
#        138811
#        158105
#        176396
#
# Disc length: 2641 seconds
#
# Revision: 0
# Processed by: cddbd v1.5.2PL0 Copyright (c) Steve Scherf et al.
# Submitted via: ExactAudioCopy v0.99pb4
#
DISCID=760a4f0a
DTITLE=Various Artist - Whoop Ass Comp
DYEAR=1900
DGENRE=Rap
TTITLE0=Hide ans Get It - E-40
TTITLE1=Can't Hang - RBL Posse
TTITLE2=1986 - C-Bo, Mac Mall, D-Shot
TTITLE3=Latin Love - Roger (From Zap0
TTITLE4=Do It - Digital Underground
TTITLE5=Off My Line - Ritchie Rich
TTITLE6=Monday Morning - Makaveli
TTITLE7=Q 2000 - San Quinn
TTITLE8=We On The Run - B-Legit
TTITLE9=Hell Yeah - The Luniz
EXTD=
EXTT0=
EXTT1=
EXTT2=
EXTT3=
EXTT4=
EXTT5=
EXTT6=
EXTT7=
EXTT8=
EXTT9=
PLAYORDER=
